<svg xmlns="http://www.w3.org/2000/svg" viewBox="0 0 92.48 22.94"><defs><linearGradient id="a" x1="14.6" x2="30.81" y1="17.56" y2="17.56" gradientTransform="rotate(-120 21.229 16.597)" gradientUnits="userSpaceOnUse"><stop offset="0" stop-color="#48c6ef"/><stop offset="1" stop-color="#6f86d6"/></linearGradient><linearGradient id="b" x1="77.64" x2="93.85" y1="17.56" y2="17.56" gradientTransform="rotate(135 85.623 15.913)" gradientUnits="userSpaceOnUse"><stop offset="0" stop-color="#fc6076"/><stop offset="1" stop-color="#ff9a44"/></linearGradient><style>.a{isolation:isolate}.b{fill:#292929}</style></defs><g class="a"><path d="m0 2.9 4.43-.71V6.8h5.32v3.68H4.43v5.51a4.36 4.36 0 0 0 .49 2.28 2.1 2.1 0 0 0 2 .83 8.44 8.44 0 0 0 1.47-.13 7.71 7.71 0 0 0 1.38-.38l.62 3.45a12.42 12.42 0 0 1-1.78.57 10.31 10.31 0 0 1-2.41.24 8 8 0 0 1-3-.49 4.79 4.79 0 0 1-1.91-1.37 5.24 5.24 0 0 1-1-2.13 12.4 12.4 0 0 1-.28-2.76Z" class="b"/></g><g class="a"><path d="M33.36 7.67a25 25 0 0 1 2.92-.61 23.78 23.78 0 0 1 3.75-.28 9.05 9.05 0 0 1 3.31.52 5.1 5.1 0 0 1 2.1 1.47 5.89 5.89 0 0 1 1.1 2.26 12 12 0 0 1 .33 2.92v8.83h-4.44v-8.3a5.94 5.94 0 0 0-.56-3 2.29 2.29 0 0 0-2.11-.89h-1c-.34 0-.68.07-1 .11v12.08h-4.4ZM50.88 7.67a24.81 24.81 0 0 1 2.91-.61 23.88 23.88 0 0 1 3.75-.28 9.07 9.07 0 0 1 3.32.52 5 5 0 0 1 2.09 1.47 5.77 5.77 0 0 1 1.11 2.26 12.49 12.49 0 0 1 .32 2.92v8.83h-4.43v-8.3a6 6 0 0 0-.56-3 2.29 2.29 0 0 0-2.11-.89h-1c-.34 0-.67.07-1 .11v12.08h-4.4ZM73.24 2.62a2.42 2.42 0 0 1-.78 1.91 2.71 2.71 0 0 1-1.84.74 2.68 2.68 0 0 1-1.86-.7 2.4 2.4 0 0 1-.79-1.91 2.4 2.4 0 0 1 .79-1.92A2.68 2.68 0 0 1 70.62 0a2.71 2.71 0 0 1 1.86.7 2.43 2.43 0 0 1 .76 1.92Zm-.41 20.16H68.4V7.14h4.43Z" class="b"/></g><circle cx="21.33" cy="14.84" r="8.11" style="fill:url(#a)"/><circle cx="84.37" cy="14.84" r="8.11" style="fill:url(#b)"/></svg>