<svg xmlns="http://www.w3.org/2000/svg" xmlns:xlink="http://www.w3.org/1999/xlink" viewBox="0 0 92.49 22.95"><defs><style>.a{isolation:isolate;}.b{fill:#292929;}.c{fill:url(#a);}</style><linearGradient id="a" x1="-1806.33" y1="11.12" x2="-1790.11" y2="11.12" gradientTransform="matrix(-0.5, -0.87, -0.87, 0.5, -868.15, -1548.02)" gradientUnits="userSpaceOnUse"><stop offset="0" stop-color="#48c6ef"/><stop offset="1" stop-color="#6f86d6"/></linearGradient></defs><g class="a"><path class="b" d="M1.93,5.63l4.43-.71V9.53h5.33v3.68H6.36v5.51A4.47,4.47,0,0,0,6.85,21a2.12,2.12,0,0,0,2,.83,8.27,8.27,0,0,0,1.47-.13,7.59,7.59,0,0,0,1.39-.38l.62,3.45a12.42,12.42,0,0,1-1.78.57,10.36,10.36,0,0,1-2.41.24,8,8,0,0,1-3-.49,4.79,4.79,0,0,1-1.91-1.37,5.11,5.11,0,0,1-1-2.13,12.37,12.37,0,0,1-.29-2.76Z" transform="translate(-1.93 -2.73)"/></g><g class="a"><path class="b" d="M35.3,10.4a24.59,24.59,0,0,1,2.92-.61A23.75,23.75,0,0,1,42,9.51a9.07,9.07,0,0,1,3.32.52,5.1,5.1,0,0,1,2.1,1.47,5.89,5.89,0,0,1,1.1,2.26,12.49,12.49,0,0,1,.32,2.92v8.83H44.37v-8.3a6,6,0,0,0-.56-3,2.29,2.29,0,0,0-2.11-.89c-.32,0-.66,0-1,0s-.67.07-1,.11V25.51H35.3Z" transform="translate(-1.93 -2.73)"/><path class="b" d="M52.82,10.4a24.37,24.37,0,0,1,2.91-.61,23.78,23.78,0,0,1,3.75-.28A9.11,9.11,0,0,1,62.8,10a5,5,0,0,1,2.09,1.47A5.75,5.75,0,0,1,66,13.76a12,12,0,0,1,.33,2.92v8.83H61.89v-8.3a5.92,5.92,0,0,0-.57-3,2.28,2.28,0,0,0-2.11-.89c-.31,0-.65,0-1,0s-.67.07-1,.11V25.51H52.82Z" transform="translate(-1.93 -2.73)"/><path class="b" d="M75.18,5.35a2.4,2.4,0,0,1-.79,1.91,2.81,2.81,0,0,1-3.71,0,2.4,2.4,0,0,1-.79-1.91,2.4,2.4,0,0,1,.79-1.92,2.81,2.81,0,0,1,3.71,0A2.4,2.4,0,0,1,75.18,5.35Zm-.41,20.16H70.33V9.87h4.44Z" transform="translate(-1.93 -2.73)"/></g><circle class="c" cx="21.34" cy="14.84" r="8.11"/><circle class="b" cx="84.38" cy="14.84" r="8.11"/></svg>