<?xml version="1.0" standalone="no"?>
<!DOCTYPE svg PUBLIC "-//W3C//DTD SVG 20010904//EN"
 "http://www.w3.org/TR/2001/REC-SVG-20010904/DTD/svg10.dtd">
<svg version="1.0" xmlns="http://www.w3.org/2000/svg"
 width="1501.000000pt" height="1501.000000pt" viewBox="0 0 1501.000000 1501.000000"
 preserveAspectRatio="xMidYMid meet">
<metadata>
Created by potrace 1.14, written by Peter Selinger 2001-2017
</metadata>
<g transform="translate(0.000000,1501.000000) scale(0.100000,-0.100000)"
fill="#000000" stroke="none">
<path d="M7138 15005 c-1 -1 -52 -6 -113 -9 -60 -4 -126 -8 -145 -10 -19 -2
-71 -7 -115 -11 -44 -3 -109 -10 -145 -15 -36 -5 -90 -11 -120 -15 -30 -3 -67
-8 -82 -11 -449 -71 -746 -137 -1118 -251 -231 -70 -612 -211 -800 -295 -460
-206 -842 -418 -1220 -676 -85 -58 -159 -109 -165 -114 -5 -4 -82 -62 -170
-129 -253 -193 -444 -358 -680 -589 -164 -160 -314 -318 -430 -454 -97 -112
-134 -157 -202 -242 -482 -599 -911 -1359 -1168 -2069 -26 -71 -51 -139 -56
-150 -26 -62 -162 -521 -184 -620 -2 -11 -18 -77 -34 -147 -17 -69 -32 -137
-35 -150 -14 -72 -56 -300 -62 -343 -5 -27 -9 -52 -9 -55 -1 -3 -5 -32 -9 -65
-5 -33 -10 -67 -11 -75 -2 -8 -6 -44 -10 -80 -4 -36 -9 -73 -10 -82 -2 -9 -7
-57 -10 -105 -4 -48 -9 -97 -11 -108 -26 -137 -26 -960 0 -1250 3 -27 7 -77
10 -110 7 -77 26 -241 32 -269 2 -11 6 -43 9 -71 6 -54 36 -235 50 -305 3 -14
8 -41 11 -60 3 -19 20 -96 36 -170 16 -74 31 -142 33 -150 1 -8 8 -35 15 -60
7 -25 14 -52 15 -60 34 -154 215 -714 280 -865 7 -16 33 -79 58 -140 111 -266
247 -546 390 -800 375 -668 882 -1309 1437 -1821 255 -234 546 -470 770 -624
36 -25 67 -47 70 -51 9 -9 232 -154 340 -221 204 -125 360 -211 590 -324 96
-48 191 -95 210 -104 168 -85 780 -315 975 -367 6 -1 26 -7 45 -12 254 -72
711 -176 860 -196 25 -3 68 -10 95 -15 28 -5 77 -12 110 -15 33 -4 67 -8 75
-10 8 -2 44 -7 80 -10 36 -4 73 -9 82 -10 9 -2 57 -7 105 -10 48 -4 99 -8 113
-10 152 -23 1037 -23 1156 -1 10 2 62 7 114 11 52 4 104 9 115 11 11 2 47 6
80 9 33 3 71 7 85 10 14 2 45 7 70 10 51 6 116 16 145 21 11 2 63 11 115 20
52 9 104 18 115 20 63 14 123 26 145 30 14 2 36 7 50 10 14 3 32 7 40 9 150
32 404 101 600 162 114 35 447 153 505 178 17 7 66 27 110 45 160 64 313 135
542 251 473 241 921 533 1340 876 60 48 110 90 113 93 3 3 25 22 50 44 327
281 726 699 975 1020 17 21 35 44 40 50 6 6 39 49 73 96 35 47 70 93 78 104
69 83 340 506 474 741 79 139 292 573 355 725 26 63 53 129 60 145 56 127 183
499 243 710 38 133 116 443 137 545 5 26 16 80 20 100 3 14 10 52 15 85 6 33
12 72 15 88 13 75 25 146 30 187 3 25 10 77 15 115 14 105 23 184 35 330 28
339 28 980 -1 1280 -11 115 -24 243 -29 275 -2 14 -7 49 -10 79 -4 30 -8 61
-10 70 -1 9 -6 41 -10 71 -4 30 -9 62 -10 70 -10 55 -19 106 -20 110 -1 3 -5
28 -9 55 -4 28 -12 66 -16 85 -5 19 -11 46 -14 60 -16 88 -43 205 -77 335 -22
83 -42 160 -45 173 -21 97 -200 629 -249 737 -7 17 -27 64 -43 105 -83 209
-279 611 -392 805 -10 17 -29 50 -42 75 -92 166 -317 509 -464 706 -93 126
-279 362 -298 379 -6 6 -24 26 -40 45 -155 189 -498 539 -703 718 -30 26 -71
62 -91 80 -54 49 -317 261 -387 313 -33 24 -62 46 -65 49 -24 26 -453 313
-545 365 -27 16 -57 34 -65 40 -8 7 -46 29 -85 50 -38 21 -74 41 -80 45 -48
38 -510 267 -705 349 -80 34 -154 66 -165 71 -199 88 -791 279 -1009 325 -11
2 -57 13 -101 24 -67 16 -167 37 -315 66 -42 8 -193 34 -235 40 -23 3 -50 7
-60 9 -11 2 -49 7 -85 11 -36 3 -72 8 -80 10 -8 2 -44 6 -80 10 -36 3 -76 8
-90 10 -14 3 -68 7 -120 10 -52 4 -115 9 -140 11 -49 6 -846 15 -852 9z"/>
</g>
</svg>
